<?xml version="1.0" standalone="no"?>
<!DOCTYPE svg PUBLIC "-//W3C//DTD SVG 20010904//EN"
 "http://www.w3.org/TR/2001/REC-SVG-20010904/DTD/svg10.dtd">
<svg version="1.0" xmlns="http://www.w3.org/2000/svg"
 width="1182.000000pt" height="1182.000000pt" viewBox="0 0 1182.000000 1182.000000"
 preserveAspectRatio="xMidYMid meet">
<metadata>
Created by potrace 1.14, written by Peter Selinger 2001-2017
</metadata>
<g transform="translate(0.000000,1182.000000) scale(0.100000,-0.100000)"
fill="#000000" stroke="none">
<path d="M4973 11807 c-3 -5 -2 -70 1 -145 4 -75 9 -175 11 -222 3 -47 7 -137
10 -200 3 -63 8 -153 10 -200 2 -47 7 -155 11 -240 4 -85 8 -173 9 -195 1 -22
3 -51 4 -65 1 -25 4 -26 104 -39 56 -7 136 -19 177 -27 41 -8 91 -17 110 -20
19 -3 53 -10 75 -16 22 -6 54 -12 70 -15 31 -5 161 -38 295 -74 41 -11 147
-45 235 -74 930 -311 1685 -898 2128 -1655 56 -97 184 -351 204 -405 6 -16 30
-78 52 -136 61 -160 144 -461 167 -606 3 -19 7 -45 10 -56 2 -11 8 -57 14
-101 6 -45 13 -92 15 -106 3 -14 7 -65 11 -113 3 -49 8 -101 10 -115 5 -37 4
-455 -1 -522 -16 -200 -36 -360 -60 -485 -8 -38 -16 -81 -19 -95 -11 -62 -40
-184 -67 -280 -122 -429 -308 -833 -562 -1215 -68 -102 -63 -99 111 70 439
424 791 961 1000 1525 66 180 106 306 146 466 23 92 53 237 72 354 8 51 9 53
19 135 4 33 9 68 11 78 24 131 24 678 0 882 -23 184 -30 236 -52 353 -158 861
-573 1650 -1211 2307 -300 309 -730 623 -1120 819 -471 235 -884 357 -1428
421 -147 17 -563 26 -572 12z"/>
<path d="M3987 10264 c-1 -1 -61 -5 -133 -8 -73 -4 -140 -8 -150 -10 -11 -2
-53 -7 -94 -11 -41 -4 -77 -8 -80 -10 -3 -1 -32 -6 -65 -9 -33 -4 -98 -14
-145 -23 -47 -8 -95 -17 -107 -19 -292 -53 -720 -199 -1028 -350 -596 -291
-1057 -660 -1456 -1165 -127 -160 -241 -333 -362 -549 l-36 -66 57 -30 c31
-17 156 -82 277 -144 121 -62 252 -130 290 -150 39 -21 165 -86 280 -145 116
-59 214 -112 220 -116 20 -19 36 -5 113 94 224 290 595 664 858 864 148 114
470 333 489 333 2 0 30 15 62 34 201 116 435 221 663 296 126 42 312 94 375
106 11 1 34 6 50 9 183 38 480 68 680 68 217 1 516 -30 690 -69 39 -9 86 -20
105 -24 151 -34 372 -102 447 -136 17 -7 34 -14 38 -14 9 0 179 -73 291 -126
98 -46 272 -138 329 -174 17 -11 44 -27 60 -36 151 -84 475 -329 634 -479 402
-379 675 -738 907 -1196 67 -133 92 -175 79 -136 -2 6 -20 80 -40 162 -75 305
-169 568 -305 849 -352 726 -913 1340 -1610 1762 -159 96 -449 239 -615 304
-60 23 -123 48 -140 56 -55 23 -445 138 -515 150 -14 3 -81 16 -150 29 -69 13
-143 27 -165 30 -23 3 -50 7 -60 9 -11 2 -51 7 -90 11 -38 4 -83 9 -100 11
-79 9 -540 25 -548 18z"/>
<path d="M10245 9485 c-165 -107 -347 -224 -405 -260 -281 -179 -375 -243
-372 -256 2 -8 32 -88 67 -179 111 -291 219 -662 259 -895 24 -139 36 -223 51
-335 25 -193 36 -613 20 -773 -3 -34 -8 -84 -11 -112 -2 -27 -7 -68 -9 -90 -3
-22 -8 -58 -11 -80 -3 -22 -8 -53 -10 -70 -3 -16 -7 -39 -9 -50 -11 -70 -21
-117 -57 -259 -99 -398 -274 -787 -497 -1106 -48 -70 -161 -222 -170 -230 -3
-3 -35 -39 -71 -80 -83 -96 -265 -278 -355 -355 -38 -33 -77 -66 -85 -74 -73
-70 -392 -288 -570 -391 -220 -126 -577 -287 -765 -343 -259 -78 -352 -104
-405 -113 -14 -3 -48 -9 -76 -15 -28 -5 -64 -12 -80 -15 -16 -2 -51 -9 -79
-14 -52 -10 -177 -27 -256 -34 -25 -3 -79 -8 -120 -12 -92 -9 -427 -10 -574
-2 l-110 7 105 -35 c58 -19 166 -50 240 -68 122 -30 158 -38 240 -52 14 -3 32
-7 40 -9 8 -2 38 -7 65 -10 28 -3 61 -8 75 -10 14 -3 48 -8 75 -11 28 -3 61
-7 75 -9 172 -24 658 -24 855 -1 17 2 55 7 85 10 337 39 765 152 1100 291 110
45 337 157 465 228 245 137 533 346 759 550 77 70 259 252 311 312 156 178
374 460 430 557 6 10 43 71 82 137 73 119 230 419 251 476 6 17 31 79 57 140
120 286 231 686 276 990 6 44 13 88 14 97 2 9 7 49 10 89 4 40 8 80 10 88 2 9
6 72 10 141 12 202 8 443 -9 620 -2 19 -7 67 -11 105 -5 57 -36 263 -50 335
-3 14 -25 112 -42 180 -3 14 -7 30 -8 35 -46 200 -163 516 -278 754 -68 141
-218 402 -229 401 -2 -1 -138 -88 -303 -195z"/>
<path d="M4777 8694 c-1 -1 -59 -4 -128 -8 -70 -3 -133 -8 -140 -10 -8 -3 -43
-7 -79 -11 -55 -5 -132 -17 -325 -50 -55 -10 -74 -14 -205 -49 -351 -91 -753
-252 -1005 -401 -41 -25 -77 -45 -80 -45 -2 0 -48 -28 -102 -62 -398 -250
-696 -511 -1045 -916 -52 -60 -221 -287 -276 -372 -149 -228 -316 -539 -391
-730 -19 -47 -40 -98 -47 -115 -42 -94 -152 -438 -180 -565 -4 -19 -8 -37 -9
-40 -1 -3 -4 -18 -8 -35 -4 -16 -9 -40 -12 -53 -2 -13 -6 -31 -9 -40 -3 -9 -8
-37 -11 -62 -4 -24 -8 -47 -10 -50 -2 -3 -8 -41 -14 -85 -6 -44 -13 -91 -15
-105 -6 -35 -14 -104 -21 -180 -3 -36 -8 -85 -10 -110 -5 -55 -6 -492 -1 -540
2 -19 7 -69 10 -110 9 -100 14 -137 32 -255 8 -55 17 -111 19 -125 2 -14 9
-47 15 -75 7 -27 14 -63 17 -80 19 -117 119 -435 200 -634 86 -213 267 -555
328 -620 14 -15 26 -9 245 134 52 34 265 171 473 304 207 134 377 244 377 247
0 2 -11 27 -24 56 -76 171 -189 513 -249 758 -25 102 -48 199 -51 215 -48 281
-53 310 -61 400 -4 39 -9 77 -10 86 -16 84 -23 526 -10 662 3 40 8 97 11 127
6 75 12 115 35 255 105 640 381 1227 809 1720 63 73 263 270 355 349 215 187
489 375 755 518 132 71 413 197 550 247 58 21 305 99 337 106 10 2 47 12 83
20 81 21 73 19 238 49 163 30 179 33 257 42 33 3 68 8 77 9 95 18 546 26 733
12 l90 -6 -70 25 c-138 50 -419 115 -680 158 -54 9 -150 19 -301 32 -71 6
-461 13 -467 8z"/>
<path d="M3859 7502 c-9 -9 -65 -64 -125 -122 -60 -58 -137 -135 -171 -172
-56 -61 -87 -98 -198 -233 -217 -265 -431 -625 -584 -982 -89 -210 -210 -600
-245 -789 -34 -189 -39 -225 -52 -329 -3 -33 -8 -69 -10 -80 -24 -132 -24
-767 1 -894 3 -17 7 -42 21 -151 9 -73 35 -213 59 -322 169 -764 552 -1489
1090 -2067 56 -59 246 -248 285 -281 14 -12 49 -43 78 -68 29 -25 63 -53 75
-61 12 -8 24 -18 27 -21 26 -32 271 -205 450 -317 231 -145 556 -298 840 -396
96 -33 319 -97 380 -110 14 -3 70 -14 126 -25 55 -12 127 -24 159 -27 33 -4
62 -8 65 -10 3 -2 37 -6 75 -10 39 -4 80 -8 93 -10 35 -6 297 -18 372 -18 36
0 93 1 128 2 l64 1 -7 157 c-4 87 -8 183 -10 213 -2 30 -7 120 -10 200 -3 80
-8 178 -10 218 -2 40 -7 139 -10 220 -4 81 -8 178 -9 215 -2 37 -5 69 -7 71
-4 4 -22 6 -139 22 -54 7 -267 45 -330 59 -14 4 -36 8 -50 11 -389 77 -893
262 -1265 464 -242 131 -597 381 -731 514 -12 12 -66 64 -119 116 -118 115
-254 269 -358 408 -42 57 -77 105 -77 107 0 3 -15 27 -34 54 -68 97 -209 355
-268 491 -9 19 -25 55 -36 80 -49 111 -156 452 -177 563 -3 12 -7 33 -10 47
-3 14 -7 36 -10 50 -3 14 -7 36 -10 50 -9 41 -12 62 -20 120 -4 30 -9 62 -10
70 -1 8 -6 42 -9 75 -4 33 -9 74 -11 90 -6 46 -18 301 -18 385 0 89 12 367 18
401 2 13 9 67 15 119 13 116 19 159 25 186 3 12 7 39 10 60 3 21 8 50 11 64 3
14 8 36 10 49 3 14 23 94 44 179 116 453 315 899 573 1285 61 90 74 118 36 79z"/>
<path d="M3510 4942 c0 -46 75 -327 137 -512 231 -687 659 -1334 1183 -1790
231 -201 348 -288 575 -430 215 -135 502 -278 730 -365 324 -124 750 -228
1060 -260 33 -4 71 -8 85 -10 136 -23 623 -22 820 0 19 2 64 6 100 10 36 3 76
7 90 10 14 2 45 7 70 10 127 18 282 48 392 76 125 31 141 35 180 44 46 10 337
109 418 142 288 118 527 240 730 372 47 31 90 58 95 61 12 5 27 16 180 130 55
41 102 77 105 80 3 3 45 39 94 80 343 285 685 709 914 1132 l31 58 -42 21
c-23 12 -96 50 -162 84 -66 34 -185 96 -265 137 -225 117 -475 247 -584 304
l-100 51 -80 -101 c-360 -457 -805 -864 -1254 -1145 -62 -39 -115 -71 -117
-71 -2 0 -26 -13 -52 -28 -54 -32 -220 -117 -303 -154 -134 -61 -441 -174
-527 -193 -10 -2 -72 -18 -138 -34 -127 -31 -128 -32 -300 -56 -60 -9 -123
-18 -140 -20 -153 -22 -535 -22 -710 -1 -16 3 -50 6 -75 9 -25 3 -72 10 -105
16 -33 6 -76 13 -95 16 -208 35 -553 142 -795 247 -144 63 -368 178 -490 251
-57 34 -302 196 -325 214 -8 6 -64 51 -125 99 -129 102 -238 199 -365 326
-311 311 -567 665 -769 1064 -39 77 -71 133 -71 126z"/>
</g>
</svg>
